HIERARCHY
ROOT root
{
	OFFSET 0.000000 0.000000 0.000000
	CHANNELS 6 Xposition Yposition Zposition Zrotation Yrotation Xrotation
	JOINT lhip
	{
		OFFSET 0.058581 -0.082280 -0.017664
		CHANNELS 3 Zrotation Yrotation Xrotation
		JOINT lknee
		{
			OFFSET 0.043451 -0.386469 0.008037
			CHANNELS 3 Zrotation Yrotation Xrotation
			JOINT lankle
			{
				OFFSET -0.014790 -0.426874 -0.037428
				CHANNELS 3 Zrotation Yrotation Xrotation
				JOINT ltoe
				{
					OFFSET 0.041054 -0.060286 0.122042
					CHANNELS 3 Zrotation Yrotation Xrotation
					End Site
					{
						OFFSET 0.000000 0.000000 0.000000
					}
				}
			}
		}
	}
	JOINT rhip
	{
		OFFSET -0.060310 -0.090513 -0.013543
		CHANNELS 3 Zrotation Yrotation Xrotation
		JOINT rknee
		{
			OFFSET -0.043257 -0.383688 -0.004843
			CHANNELS 3 Zrotation Yrotation Xrotation
			JOINT rankle
			{
				OFFSET 0.019056 -0.420046 -0.034562
				CHANNELS 3 Zrotation Yrotation Xrotation
				JOINT rtoe
				{
					OFFSET -0.034840 -0.062106 0.130323
					CHANNELS 3 Zrotation Yrotation Xrotation
					End Site
					{
						OFFSET 0.000000 0.000000 0.000000
					}
				}
			}
		}
	}
	JOINT lowerback
	{
		OFFSET 0.004439 0.124404 -0.038385
		CHANNELS 3 Zrotation Yrotation Xrotation
		JOINT upperback
		{
			OFFSET 0.004488 0.137956 0.026820
			CHANNELS 3 Zrotation Yrotation Xrotation
			JOINT chest
			{
				OFFSET -0.002265 0.056032 0.002855
				CHANNELS 3 Zrotation Yrotation Xrotation
				JOINT lowerneck
				{
					OFFSET -0.013390 0.211636 -0.033468
					CHANNELS 3 Zrotation Yrotation Xrotation
					JOINT upperneck
					{
						OFFSET 0.010113 0.088937 0.050410
						CHANNELS 3 Zrotation Yrotation Xrotation
						End Site
						{
							OFFSET 0.000000 0.000000 0.000000
						}
					}
				}
				JOINT lclavicle
				{
					OFFSET 0.071702 0.114000 -0.018898
					CHANNELS 3 Zrotation Yrotation Xrotation
					JOINT lshoulder
					{
						OFFSET 0.122921 0.045205 -0.019046
						CHANNELS 3 Zrotation Yrotation Xrotation
						JOINT lelbow
						{
							OFFSET 0.255332 -0.015649 -0.022946
							CHANNELS 3 Zrotation Yrotation Xrotation
							JOINT lwrist
							{
								OFFSET 0.265709 0.012698 -0.007375
								CHANNELS 3 Zrotation Yrotation Xrotation
								End Site
								{
									OFFSET 0.000000 0.000000 0.000000
								}
							}
						}
					}
				}
				JOINT rclavicle
				{
					OFFSET -0.082954 0.112472 -0.023707
					CHANNELS 3 Zrotation Yrotation Xrotation
					JOINT rshoulder
					{
						OFFSET -0.113228 0.046853 -0.008472
						CHANNELS 3 Zrotation Yrotation Xrotation
						JOINT relbow
						{
							OFFSET -0.260127 -0.014369 -0.031269
							CHANNELS 3 Zrotation Yrotation Xrotation
							JOINT rwrist
							{
								OFFSET -0.269108 0.006794 -0.006027
								CHANNELS 3 Zrotation Yrotation Xrotation
								End Site
								{
									OFFSET 0.000000 0.000000 0.000000
								}
							}
						}
					}
				}
			}
		}
	}
}
MOTION
Frames: 16
Frame Time: 0.033333
1.040069 0.378475 1.085458 -86.147411 3.168800 92.858287 13.425426 -1.200148 -4.314809 -3.987141 -14.573267 14.320802 -8.051734 5.213390 14.403495 0.000000 -0.000000 0.000000 -3.544340 2.884856 -29.834059 3.384930 -8.757771 35.806819 1.165480 -4.594837 -10.570107 0.000000 -0.000000 0.000000 2.637302 -4.472233 15.597271 4.178327 -1.458993 9.419902 -0.124285 -3.465538 3.423411 3.599945 -2.784272 8.503749 2.216054 -7.234301 13.058163 -24.132798 5.807692 1.619923 -58.454730 -7.890368 7.564856 11.745089 -38.655528 0.009687 -2.648123 -0.594185 -11.066753 21.445767 -3.088932 -0.164183 53.418291 5.779722 7.172796 -18.241549 41.390857 -10.344455 2.568437 0.145627 -6.513779 
1.032912 0.386248 1.100642 -87.381901 1.471912 90.638727 10.033445 -2.024885 -2.920284 -4.497119 -16.713513 18.676901 -4.935204 4.693830 7.011378 0.000000 -0.000000 0.000000 -3.471502 1.184895 -24.104461 3.587118 -6.247629 30.660862 2.230697 -3.332025 -8.938115 0.000000 -0.000000 0.000000 1.279758 -2.193503 18.602230 3.469742 -1.701705 8.522356 0.317965 -3.534081 3.962356 3.960811 -2.939812 8.193028 2.344544 -7.448394 13.137333 -23.405118 5.923800 1.614273 -58.470056 -7.382455 7.090941 10.711758 -38.811895 1.146808 -2.370695 -0.503787 -11.958857 21.242103 -2.825845 -0.972257 54.128739 5.531769 7.496342 -19.572025 42.045047 -11.849402 2.532218 0.074343 -5.908302 
1.026174 0.394437 1.113518 -88.847569 0.335022 88.892339 7.129933 -1.789400 -2.779421 -3.487754 -13.778373 24.596186 0.610380 8.365573 -2.131061 0.000000 -0.000000 0.000000 -2.921839 0.491874 -19.076086 3.620014 -3.259208 25.585918 2.739881 -3.615389 -7.173490 0.000000 -0.000000 0.000000 0.343804 -0.176712 20.696931 3.115795 -1.551570 6.751890 0.345992 -3.407802 5.850085 4.520434 -2.583085 8.212117 1.648515 -8.000946 12.613907 -22.946208 6.720349 2.228583 -57.808110 -8.384290 8.237579 9.390906 -38.399156 3.714875 -0.468395 -0.453288 -14.770543 21.432570 -3.804957 -1.626798 55.179901 6.249971 10.012516 -22.486193 41.812949 -12.134087 3.296411 0.359792 -8.946516 
1.016901 0.401521 1.123973 -91.131718 -1.308467 86.074699 3.759251 -0.182811 -0.714375 -1.885847 -10.163002 28.855189 2.793968 12.053110 -7.965683 0.000000 -0.000000 0.000000 -2.966559 -0.537723 -13.344809 2.925654 -0.256526 21.526300 3.608517 -2.325862 -6.092928 0.000000 -0.000000 0.000000 -0.990688 2.348786 23.507856 2.216583 -1.347509 6.216720 0.557910 -3.197275 6.522314 4.585229 -2.453406 7.808314 1.736532 -7.866766 13.214800 -21.413327 6.421398 2.197070 -58.223407 -7.609724 7.330050 8.243790 -38.286110 5.177871 -0.314382 -0.595913 -14.593183 20.960822 -3.591110 -2.118238 56.889910 5.803482 10.153520 -23.170033 42.335296 -12.676171 3.158407 0.029653 -8.340922 
1.006911 0.407228 1.132403 -92.647518 -2.977968 83.218961 0.277210 1.555352 1.800343 -2.088422 -9.888561 30.855499 3.437582 13.213021 -11.778245 0.000000 -0.000000 0.000000 -3.734622 -2.023986 -7.913462 2.473847 2.335708 18.202069 4.319871 -1.112088 -5.792750 0.000000 -0.000000 0.000000 -2.015970 4.324956 26.213850 1.256467 -1.595662 5.749012 0.701257 -3.010823 6.796267 4.617257 -2.626043 7.765607 1.945874 -8.096914 13.720822 -20.377486 6.129820 2.292070 -58.210884 -6.658039 6.282995 7.423728 -38.252998 6.247668 -0.032886 -0.798264 -14.577760 20.603463 -3.144303 -2.247928 58.412074 5.103611 10.016288 -23.464914 42.800193 -12.571370 3.429080 -0.245174 -7.544802 
0.998576 0.412102 1.138250 -92.906820 -4.016418 81.759748 -2.797949 1.870921 2.725575 -3.215255 -11.232006 31.097531 3.582871 13.027910 -14.809052 0.000000 -0.000000 0.000000 -4.451251 -3.109180 -4.130875 2.295398 3.754364 15.203659 4.749583 -0.368033 -5.555422 0.000000 -0.000000 0.000000 -2.411392 5.417583 26.979248 0.682929 -2.103606 5.530260 0.561636 -2.888327 7.232644 4.657519 -2.174422 7.604842 1.800197 -8.065996 13.936038 -19.845690 6.032270 1.997425 -58.118465 -6.369855 5.932590 7.271613 -37.219577 6.301899 0.165704 -1.084257 -14.769555 20.728554 -3.187845 -2.721598 59.308353 4.393616 10.362798 -23.225062 42.565961 -12.179979 3.626760 -0.374723 -7.446605 
0.990238 0.416534 1.142182 -92.115332 -4.544503 80.956390 -5.265848 1.819169 3.318989 -3.200408 -12.182532 29.069411 3.156920 12.940473 -16.464398 0.000000 -0.000000 0.000000 -4.806813 -4.018048 -1.387068 2.199629 4.625507 12.931101 4.839842 -0.534073 -5.566080 0.000000 -0.000000 0.000000 -2.478106 5.885043 26.865541 0.371623 -2.658814 5.211179 0.358675 -3.248178 7.609293 4.637729 -1.667020 7.671639 1.857833 -7.826885 13.934371 -19.661435 6.074374 1.938497 -57.952176 -6.264565 5.812601 7.584129 -36.235649 5.607910 0.453788 -1.413725 -14.916156 21.031808 -3.621228 -3.096454 60.003006 3.615471 10.929296 -22.736406 42.205499 -11.350814 4.279576 -0.258809 -7.301181 
0.983934 0.422126 1.144688 -91.910331 -4.763144 80.409457 -7.058771 1.851560 3.940188 -2.358017 -12.009590 25.454953 2.799572 12.948575 -17.489715 0.000000 -0.000000 0.000000 -4.791750 -4.047651 0.721930 2.206986 4.868227 11.083072 5.154372 -0.435109 -5.584773 0.000000 -0.000000 0.000000 -2.961459 6.381719 26.461893 0.181598 -3.003168 5.253080 0.470661 -3.210359 7.717556 4.679021 -1.238579 7.682004 2.010505 -7.649286 13.940738 -19.522500 6.058309 1.694224 -58.139195 -6.325236 5.651262 8.370866 -35.301809 4.157512 0.001319 -1.555082 -14.788482 21.130641 -3.827737 -3.323413 60.804837 2.940739 11.379269 -22.383718 41.643906 -10.693362 5.603374 -0.407445 -7.053216 
0.977950 0.427480 1.145999 -91.215786 -4.728992 80.228462 -8.595194 1.721454 4.467936 -1.766494 -13.122390 21.138191 3.219716 12.585468 -18.200954 0.000000 -0.000000 0.000000 -4.634165 -4.250461 2.027709 2.343423 4.885432 9.989950 5.381444 -0.935352 -5.554988 0.000000 -0.000000 0.000000 -3.409669 6.452196 25.718987 0.105891 -3.329191 4.888821 0.560327 -3.220645 7.815246 4.771619 -1.187461 8.140440 2.145872 -7.658847 14.060648 -19.507738 5.955495 1.837971 -58.116996 -6.592250 5.774732 8.659859 -34.504747 3.061381 0.635775 -1.427787 -14.749365 21.247149 -3.998114 -3.273819 61.618825 1.976492 11.835088 -22.041910 40.947458 -10.138617 5.723441 -0.451885 -6.824018 
0.973256 0.432661 1.146219 -90.847515 -4.387148 80.395037 -9.390023 1.041205 4.739887 -1.654071 -14.405359 17.136821 3.154082 12.049166 -18.262342 0.000000 -0.000000 0.000000 -4.065648 -4.054819 2.534261 2.545624 4.467831 9.437467 5.321130 -1.249090 -5.505711 0.000000 -0.000000 0.000000 -3.750818 6.298909 24.405858 0.118843 -3.551357 4.829094 0.481536 -3.128770 7.980984 4.950801 -0.791229 8.527336 2.264447 -7.790392 14.039572 -19.605340 6.101999 1.811590 -58.085407 -6.919927 6.160563 9.072451 -34.163386 2.524544 0.431758 -1.782247 -14.766822 21.479137 -4.418053 -3.184228 62.354554 1.451333 12.290662 -21.623010 40.174049 -9.073545 6.211621 -0.388555 -7.026910 
0.969163 0.437752 1.145965 -90.405726 -3.793786 80.763257 -9.248588 0.876518 4.920911 -1.443259 -15.205493 13.475452 3.126780 11.623259 -17.651921 0.000000 -0.000000 0.000000 -3.246821 -3.788134 2.917509 2.795027 3.848860 8.736201 5.271439 -1.602341 -5.455917 0.000000 -0.000000 0.000000 -3.989150 5.958853 23.025288 0.173875 -3.631154 4.533719 0.474235 -3.150488 7.999917 4.981469 -0.364848 9.319826 2.362351 -7.356216 14.151356 -19.741610 6.278464 2.135482 -58.026880 -7.244041 6.344506 9.065401 -34.453145 2.522541 0.673673 -1.423547 -14.403656 21.579037 -4.930051 -2.775649 62.977073 0.965723 12.489006 -20.711312 39.708614 -7.786696 6.142317 -0.536255 -7.309215 
0.965381 0.442570 1.144761 -90.197895 -3.097027 81.114282 -8.444999 1.007530 5.176625 -1.524768 -15.638795 10.650589 2.873380 11.157651 -16.628994 0.000000 -0.000000 0.000000 -2.246581 -3.558724 2.968243 3.017705 3.262223 8.633717 4.874809 -1.735693 -5.639385 0.000000 -0.000000 0.000000 -4.117178 5.516839 21.466608 0.263080 -3.557359 4.764539 0.338145 -3.111629 7.847555 4.987327 0.005447 9.478942 2.532042 -7.352726 14.243470 -19.705988 6.542873 2.165616 -58.107576 -7.297326 6.651243 9.042907 -35.332359 3.063039 0.619568 -1.594409 -14.321059 21.428669 -5.428757 -2.529173 63.748159 0.277356 12.524874 -19.874504 39.570901 -6.393121 6.566691 -0.069927 -8.016078 
0.960746 0.447166 1.143518 -89.868580 -2.405285 81.292009 -7.363130 0.827361 5.703653 -1.648133 -16.151328 8.896298 2.878186 10.551735 -16.217903 0.000000 -0.000000 0.000000 -1.584212 -3.659380 3.560581 3.511263 2.778968 8.018162 4.969714 -1.691761 -5.628874 0.000000 -0.000000 0.000000 -4.326137 5.120953 20.025543 0.361974 -3.639799 4.791965 0.359230 -3.033286 7.799061 4.993910 0.500932 9.984652 2.520330 -6.994097 14.450805 -19.760167 6.945382 2.262929 -58.213394 -7.572473 6.982821 8.773277 -36.020465 3.706084 0.246957 -1.718049 -14.170270 21.472380 -6.122273 -2.249912 64.113591 -0.378062 12.537298 -19.070915 39.461323 -5.288088 6.817113 0.431952 -8.598720 
0.957638 0.451363 1.142281 -89.431711 -1.701467 81.559073 -5.848228 0.880614 5.849245 -1.733115 -16.285100 8.241502 2.818299 10.182301 -14.948390 0.000000 -0.000000 0.000000 -0.575204 -3.402196 3.790570 3.779257 2.460494 7.705387 4.480861 -2.081034 -6.265715 0.000000 -0.000000 0.000000 -4.621498 4.737025 18.404597 0.680327 -3.641796 5.252200 0.427795 -3.196249 7.669780 5.035599 0.728706 10.150495 2.414884 -7.029520 14.448950 -19.960472 7.145990 2.398197 -58.301324 -7.834114 7.339245 8.771597 -36.979995 4.164302 -0.189935 -1.403580 -14.346802 21.493323 -6.541308 -1.976469 64.375098 -0.745849 12.623188 -18.494638 39.282612 -4.328845 7.063707 0.222161 -8.926008 
0.953502 0.454630 1.140557 -88.715930 -0.791049 82.033647 -4.139870 0.548951 6.320842 -1.707307 -17.429029 6.689185 3.285085 9.394573 -13.289767 0.000000 -0.000000 0.000000 0.594478 -3.592466 4.030645 3.972093 2.150881 7.079489 3.762974 -2.421893 -6.363742 0.000000 -0.000000 0.000000 -4.488474 4.009243 16.698496 0.860472 -3.717150 5.348120 0.419211 -3.176343 7.495321 5.077385 0.790918 10.574722 2.518620 -6.676825 14.249400 -20.042263 7.470969 2.624609 -58.470773 -8.055350 7.790747 8.337357 -37.548484 5.144277 0.072208 -1.328671 -14.500423 21.399322 -7.083466 -1.500183 64.617766 -1.422904 12.482983 -17.935808 39.060958 -3.241899 6.748236 0.033340 -9.224160 
0.950132 0.457344 1.138736 -88.799181 0.089366 82.304070 -2.555469 0.720505 7.021074 -1.818444 -17.229166 5.247639 3.116955 9.580556 -13.956413 0.000000 -0.000000 0.000000 1.410589 -3.459828 4.305818 4.545447 1.941013 6.732600 3.938760 -2.381545 -6.383950 0.000000 -0.000000 0.000000 -4.128416 3.558397 15.175870 1.005278 -3.487480 5.577565 0.306172 -3.066673 7.344646 4.943948 0.851499 10.660346 2.431640 -6.459818 14.143569 -20.277281 7.410938 2.762931 -58.454536 -8.067630 8.095557 8.158666 -38.008898 6.070572 0.014236 -1.568131 -13.908129 21.270357 -7.399914 -1.125852 64.523665 -1.844202 12.192316 -16.981493 38.614500 -2.127930 6.637734 0.336175 -9.552003 
